<mxfile host="app.diagrams.net" modified="2023-11-06T02:06:05.614Z" agent="Mozilla/5.0 (Linux; U; Android 10; zh-cn; Mi 10 Build/QKQ1.191117.002) AppleWebKit/537.36 (KHTML, like Gecko) Version/4.0 Chrome/109.0.5414.118 Mobile Safari/537.36 XiaoMi/MiuiBrowser/17.8.181023 swan-mibrowser" version="22.0.8" etag="kAov9wvbRbySQuKuS8MZ" type="github">
  <diagram name="第 1 页" id="X_RP1lQi5qDBneD1Z2AK">
    <mxGraphModel>
      <root>
        <mxCell id="0" />
        <mxCell id="1" parent="0" />
      </root>
    </mxGraphModel>
  </diagram>
</mxfile>
